<svg width="122" height="40" viewBox="0 0 122 40" fill="none" xmlns="http://www.w3.org/2000/svg">
<rect x="0.5" y="0.5" width="121" height="39" rx="3.5" fill="white"/>
<path d="M12.432 25H14.432L15.328 22.168H19.696L20.608 25H22.816L19.04 13.56H16.256L12.432 25ZM17.52 15.304L19.2 20.616H15.824L17.52 15.304ZM24.61 25H26.546V12.76H24.61V25ZM29.1137 25H31.0497V12.76H29.1137V25ZM39.734 25.16C41.014 25.16 41.75 24.696 42.294 23.976V25H44.198V19.512C44.198 17.224 42.726 16.456 40.854 16.456C38.982 16.456 37.43 17.272 37.27 19.224H39.142C39.238 18.392 39.734 17.912 40.742 17.912C41.878 17.912 42.262 18.472 42.262 19.592V20.024H41.222C38.822 20.024 36.934 20.728 36.934 22.68C36.934 24.424 38.198 25.16 39.734 25.16ZM40.198 23.768C39.238 23.768 38.854 23.304 38.854 22.6C38.854 21.576 39.798 21.24 41.27 21.24H42.262V22.072C42.262 23.144 41.382 23.768 40.198 23.768ZM49.441 25.16C51.585 25.16 52.785 24.184 52.785 22.488C52.785 20.712 51.617 20.232 49.649 19.928C48.321 19.704 47.921 19.464 47.921 18.856C47.921 18.264 48.417 17.864 49.249 17.864C50.145 17.864 50.577 18.216 50.737 18.984H52.529C52.321 17.096 50.961 16.456 49.249 16.456C47.681 16.456 46.113 17.288 46.113 18.968C46.113 20.536 46.929 21.16 49.137 21.512C50.369 21.72 50.929 21.976 50.929 22.664C50.929 23.368 50.465 23.736 49.425 23.736C48.289 23.736 47.857 23.24 47.761 22.392H45.937C46.017 24.168 47.281 25.16 49.441 25.16ZM57.5072 25.16C59.6512 25.16 60.8512 24.184 60.8512 22.488C60.8512 20.712 59.6832 20.232 57.7152 19.928C56.3872 19.704 55.9872 19.464 55.9872 18.856C55.9872 18.264 56.4832 17.864 57.3152 17.864C58.2112 17.864 58.6432 18.216 58.8032 18.984H60.5952C60.3872 17.096 59.0272 16.456 57.3152 16.456C55.7472 16.456 54.1792 17.288 54.1792 18.968C54.1792 20.536 54.9952 21.16 57.2032 21.512C58.4352 21.72 58.9952 21.976 58.9952 22.664C58.9952 23.368 58.5312 23.736 57.4912 23.736C56.3552 23.736 55.9232 23.24 55.8272 22.392H54.0032C54.0832 24.168 55.3472 25.16 57.5072 25.16ZM66.3895 25.16C68.5335 25.16 69.9575 24.2 70.2295 22.44H68.3575C68.2135 23.256 67.6055 23.72 66.4375 23.72C64.9975 23.72 64.1975 22.824 64.1335 21.24H70.2615V20.68C70.2615 17.688 68.3895 16.456 66.3095 16.456C63.9255 16.456 62.1495 18.184 62.1495 20.776V20.904C62.1495 23.544 63.9255 25.16 66.3895 25.16ZM64.1655 19.944C64.3575 18.648 65.1415 17.864 66.3095 17.864C67.5095 17.864 68.2455 18.504 68.3415 19.944H64.1655ZM74.9987 25.144C75.5907 25.144 76.0067 25.048 76.3107 24.936V23.4C76.0387 23.512 75.7507 23.56 75.3667 23.56C74.7587 23.56 74.4067 23.224 74.4067 22.488V18.088H76.2467V16.632H74.4067V14.792H72.4707V16.632H71.3507V18.088H72.4707V22.664C72.4707 24.248 73.3347 25.144 74.9987 25.144ZM81.1591 25.16C83.3031 25.16 84.5031 24.184 84.5031 22.488C84.5031 20.712 83.3351 20.232 81.3671 19.928C80.0391 19.704 79.6391 19.464 79.6391 18.856C79.6391 18.264 80.1351 17.864 80.9671 17.864C81.8631 17.864 82.2951 18.216 82.4551 18.984H84.2471C84.0391 17.096 82.6791 16.456 80.9671 16.456C79.3991 16.456 77.8311 17.288 77.8311 18.968C77.8311 20.536 78.6471 21.16 80.8551 21.512C82.0871 21.72 82.6471 21.976 82.6471 22.664C82.6471 23.368 82.1831 23.736 81.1431 23.736C80.0071 23.736 79.5751 23.24 79.4791 22.392H77.6551C77.7351 24.168 78.9991 25.16 81.1591 25.16Z" fill="#4B4B60"/>
<path d="M102.364 20.95L107.314 16L108.728 17.414L102.364 23.778L96 17.414L97.414 16L102.364 20.95Z" fill="#4B4B60"/>
<rect x="0.5" y="0.5" width="121" height="39" rx="3.5" stroke="#E8E8F7"/>
</svg>
