<svg width="16" height="16" viewBox="0 0 16 16" fill="none" xmlns="http://www.w3.org/2000/svg">
<path d="M15.9998 8.18387C15.9998 7.64007 15.9548 7.09333 15.8588 6.55835H8.16095V9.6389H12.5692C12.3862 10.6324 11.7985 11.5113 10.9378 12.0698V14.0687H13.5678C15.1121 12.6754 15.9998 10.6177 15.9998 8.18387Z" fill="#4285F4"/>
<path d="M8.1608 16C10.3619 16 12.2182 15.2916 13.5706 14.0688L10.9407 12.07C10.209 12.5579 9.26436 12.8342 8.1638 12.8342C6.03467 12.8342 4.2294 11.4262 3.58166 9.5332H0.867767V11.5938C2.2532 14.2951 5.07506 16 8.1608 16Z" fill="#34A853"/>
<path d="M3.57905 9.53317C3.23718 8.53964 3.23718 7.4638 3.57905 6.47026V4.4097H0.868147C-0.289382 6.67014 -0.289382 9.33329 0.868147 11.5937L3.57905 9.53317Z" fill="#FBBC04"/>
<path d="M8.1608 3.16633C9.32433 3.1487 10.4489 3.57786 11.2915 4.36563L13.6216 2.08167C12.1462 0.723645 10.188 -0.0229766 8.1608 0.000539093C5.07506 0.000539093 2.2532 1.70542 0.867767 4.40972L3.57867 6.47028C4.2234 4.57433 6.03167 3.16633 8.1608 3.16633Z" fill="#EA4335"/>
</svg>
