<svg width="80" height="32" viewBox="0 0 80 32" fill="none" xmlns="http://www.w3.org/2000/svg">
<path d="M22.031 20.617L26.314 24.899L24.899 26.314L20.617 22.031C19.0237 23.3082 17.042 24.0029 15 24C10.032 24 6 19.968 6 15C6 10.032 10.032 6 15 6C19.968 6 24 10.032 24 15C24.0029 17.042 23.3082 19.0237 22.031 20.617ZM20.025 19.875C21.2941 18.5699 22.0029 16.8204 22 15C22 11.132 18.867 8 15 8C11.132 8 8 11.132 8 15C8 18.867 11.132 22 15 22C16.8204 22.0029 18.5699 21.2941 19.875 20.025L20.025 19.875Z" fill="#4B4B60"/>
<path d="M40 2V30" stroke="#E8E8F7"/>
<path d="M62 22H66V20H62V22ZM55 10V12H73V10H55ZM58 17H70V15H58V17Z" fill="#4B4B60"/>
</svg>
