<svg width="78" height="40" viewBox="0 0 78 40" fill="none" xmlns="http://www.w3.org/2000/svg">
<rect x="0.5" y="0.5" width="77" height="39" rx="3.5" fill="white"/>
<path d="M12.24 25H20.512V23.352H15.648L18.192 20.872C19.552 19.56 20.432 18.264 20.432 16.776C20.432 14.76 19.024 13.4 16.656 13.4C14.24 13.4 12.736 14.84 12.592 17.336H14.544C14.736 15.72 15.456 15.064 16.592 15.064C17.696 15.064 18.304 15.736 18.304 16.808C18.304 17.896 17.648 18.904 16.56 20.056L12.24 24.616V25ZM27.1638 25H29.2277V22.68H30.7638V21.096H29.2277V13.56H26.5557L21.4997 21.928V22.68H27.1638V25ZM23.7717 21.096L27.1958 15.176V21.096H23.7717ZM32.5657 25H34.5017V20.072C34.5017 18.744 35.3817 18.072 36.4697 18.072C37.6217 18.072 38.1337 18.648 38.1337 19.912V25H40.0697V19.736C40.0697 17.432 38.8857 16.456 37.2057 16.456C35.8298 16.456 34.9017 17.144 34.5017 17.96V12.76H32.5657V25Z" fill="#4B4B60"/>
<path d="M58.364 20.95L63.314 16L64.728 17.414L58.364 23.778L52 17.414L53.414 16L58.364 20.95Z" fill="#4B4B60"/>
<rect x="0.5" y="0.5" width="77" height="39" rx="3.5" stroke="#E8E8F7"/>
</svg>
